<?xml version="1.0" standalone="no"?>
<!DOCTYPE svg PUBLIC "-//W3C//DTD SVG 20010904//EN"
 "http://www.w3.org/TR/2001/REC-SVG-20010904/DTD/svg10.dtd">
<svg version="1.0" xmlns="http://www.w3.org/2000/svg"
 width="414.000000pt" height="351.000000pt" viewBox="0 0 414.000000 351.000000"
 preserveAspectRatio="xMidYMid meet">

<g transform="translate(0.000000,351.000000) scale(0.100000,-0.100000)"
fill="#FFFFFF" stroke="none">
<path d="M1243 3408 c-23 -29 -24 -67 -3 -88 24 -24 36 -25 44 -4 12 30 6 71
-13 88 -14 13 -20 14 -28 4z"/>
<path d="M1320 3350 c0 -58 1 -60 26 -60 28 0 53 24 54 50 0 13 -60 70 -74 70
-4 0 -6 -27 -6 -60z"/>
<path d="M2877 3306 c-21 -50 -37 -60 -37 -22 0 17 -8 27 -27 34 -56 21 -73
24 -73 10 0 -20 39 -119 62 -157 l21 -33 -21 -67 c-36 -116 -35 -111 -14 -111
24 0 36 14 51 61 7 20 25 56 41 80 27 42 97 225 89 233 -2 3 -20 7 -39 11 -34
6 -36 5 -53 -39z"/>
<path d="M1503 3331 c-79 -10 -89 -25 -77 -113 7 -45 8 -102 3 -148 -5 -41 -7
-81 -4 -88 11 -29 168 24 215 73 60 62 25 105 -87 105 l-63 0 0 60 c0 57 2 61
27 71 17 6 52 8 87 4 44 -6 57 -4 51 4 -16 26 -82 40 -152 32z m92 -195 c18
-13 18 -15 2 -40 -15 -22 -86 -76 -102 -76 -3 0 -5 24 -5 53 0 51 1 53 33 64
46 15 51 15 72 -1z"/>
<path d="M847 3313 c-8 -10 -17 -25 -19 -33 -2 -8 -7 -18 -11 -21 -5 -3 -20
-66 -34 -138 -29 -144 -27 -152 28 -154 l34 -2 9 60 c5 33 10 61 11 63 1 1 13
-2 26 -7 19 -7 28 -22 38 -59 12 -49 35 -72 53 -54 11 11 -8 195 -29 270 -11
41 -21 57 -46 72 -39 24 -40 24 -60 3z m57 -171 c5 -28 3 -33 -12 -30 -9 2
-17 9 -16 16 1 6 2 24 3 39 1 34 16 19 25 -25z"/>
<path d="M2287 3313 c-8 -10 -17 -25 -19 -33 -2 -8 -7 -18 -11 -21 -5 -3 -20
-66 -34 -138 -29 -144 -27 -152 28 -154 l34 -2 9 60 c5 33 10 61 11 63 1 1 13
-2 26 -7 19 -7 28 -22 38 -59 12 -49 35 -72 53 -54 12 12 -18 254 -37 298 -7
18 -27 40 -44 48 -37 20 -35 20 -54 -1z m57 -171 c5 -28 3 -33 -12 -30 -9 2
-17 9 -16 16 1 6 2 24 3 39 1 34 16 19 25 -25z"/>
<path d="M3614 3308 c-11 -13 -25 -34 -32 -48 -16 -34 -52 -206 -52 -252 0
-34 3 -38 34 -44 19 -3 39 -3 45 1 6 3 11 31 11 61 0 53 1 54 29 54 27 0 30
-4 41 -50 13 -55 34 -80 52 -62 8 8 8 41 -1 124 -15 144 -33 201 -69 219 -15
7 -30 15 -33 16 -3 2 -14 -7 -25 -19z m55 -175 c1 -13 -3 -23 -8 -23 -17 0
-23 20 -15 53 6 28 8 30 15 12 4 -11 8 -30 8 -42z"/>
<path d="M582 3300 c-19 -4 -38 -12 -44 -18 -13 -13 -10 -187 6 -252 11 -48
16 -55 37 -55 l24 0 -4 142 -3 142 36 7 c21 3 60 3 88 0 46 -6 50 -5 39 8 -26
31 -108 43 -179 26z"/>
<path d="M1765 3301 c-70 -8 -77 -25 -72 -176 2 -69 8 -130 15 -142 16 -29 51
-30 152 -3 l75 20 28 -21 c27 -19 30 -20 47 -4 10 9 27 43 39 76 12 33 26 57
30 55 5 -3 14 -33 21 -66 10 -49 17 -61 36 -66 31 -8 42 1 49 39 12 64 -50
277 -80 277 -8 0 -20 2 -27 5 -16 6 -34 -26 -69 -120 -42 -117 -62 -155 -74
-145 -7 6 -31 4 -66 -5 -83 -23 -80 -24 -94 55 l-6 36 60 13 c72 16 71 31 -3
31 l-54 0 5 48 c7 70 7 69 72 77 34 4 58 11 55 16 -6 10 -58 10 -139 0z"/>
<path d="M3471 3303 c-13 -3 -45 -18 -72 -35 -45 -27 -50 -28 -65 -14 -8 9
-21 16 -28 16 -31 0 -38 -29 -37 -161 0 -73 3 -134 5 -136 2 -3 22 -7 44 -10
l40 -5 7 46 c4 25 10 48 14 50 3 2 24 -20 46 -50 22 -29 45 -52 50 -50 18 5 5
70 -30 141 -38 79 -40 73 47 145 56 47 56 48 32 59 -14 6 -26 10 -27 10 -1 -1
-13 -4 -26 -6z"/>
<path d="M3845 3301 c-70 -8 -77 -25 -72 -176 4 -140 13 -165 60 -165 39 0
176 35 189 48 5 5 3 13 -5 20 -10 8 -27 7 -68 -3 -83 -23 -80 -24 -94 55 l-6
36 60 13 c72 16 71 31 -3 31 l-54 0 5 48 c7 70 7 69 72 77 34 4 58 11 55 16
-6 10 -58 10 -139 0z"/>
<path d="M258 3277 c-53 -19 -57 -23 -51 -46 3 -14 13 -31 20 -36 11 -8 14
-35 11 -118 -3 -116 8 -135 28 -49 6 29 13 54 15 56 2 1 27 11 54 21 52 19
185 101 185 114 0 18 -51 53 -95 67 -64 19 -98 17 -167 -9z m197 -63 c-19 -15
-150 -84 -159 -84 -4 0 21 78 30 92 3 4 38 8 77 8 67 -1 71 -2 52 -16z"/>
<path d="M2480 3277 c-58 -24 -66 -42 -34 -78 10 -11 14 -45 14 -122 0 -59 4
-107 9 -107 4 0 14 26 20 59 11 54 14 59 42 65 35 7 150 69 188 102 l26 22
-28 30 c-52 54 -147 66 -237 29z m210 -52 c0 -5 -104 -66 -143 -83 -27 -11
-27 -11 -21 16 18 72 18 72 94 72 38 0 70 -2 70 -5z"/>
<path d="M3093 3276 c-39 -32 -85 -119 -76 -142 5 -12 3 -15 -6 -9 -10 5 -11
2 -7 -13 4 -11 2 -23 -4 -27 -14 -9 -13 -68 3 -89 20 -27 78 -35 152 -21 36 6
68 15 72 18 14 15 -31 19 -68 7 -51 -17 -90 -5 -103 33 -19 53 61 227 104 227
11 0 20 -4 20 -10 0 -5 14 -10 31 -10 23 0 30 4 27 17 -8 45 -100 56 -145 19z"/>
<path d="M1118 2623 c-30 -34 -46 -79 -67 -187 -29 -149 -29 -152 14 -160 44
-9 55 -2 55 33 0 16 3 42 6 58 5 25 10 29 30 25 18 -3 26 -15 39 -58 17 -60
29 -72 51 -53 11 9 14 22 9 43 -3 17 -10 69 -16 116 -14 121 -27 159 -63 181
-38 23 -39 23 -58 2z m52 -167 c6 -27 5 -36 -5 -36 -20 0 -26 14 -19 49 8 38
13 35 24 -13z"/>
<path d="M1284 2633 c-6 -5 -10 -70 -10 -175 l0 -168 27 0 c44 0 150 45 186
79 48 46 41 101 -13 101 -12 0 -29 3 -38 6 -14 5 -14 8 -1 21 24 23 18 57 -18
97 -26 31 -40 39 -77 42 -25 3 -50 1 -56 -3z m96 -97 c0 -6 -9 -22 -20 -36
l-20 -25 0 54 c0 53 0 54 20 36 11 -10 20 -23 20 -29z m76 -91 c4 -8 0 -23 -7
-32 -18 -21 -89 -73 -101 -73 -5 0 -8 23 -6 52 3 46 6 53 28 59 44 12 80 10
86 -6z"/>
<path d="M1614 2618 c-11 -13 -25 -34 -32 -48 -16 -33 -52 -206 -52 -251 0
-34 2 -37 36 -44 45 -8 54 3 54 68 0 45 1 47 29 47 27 0 30 -4 42 -50 14 -53
31 -76 49 -65 18 11 -7 256 -32 310 -6 14 -25 32 -41 40 -37 18 -30 19 -53 -7z
m55 -175 c1 -14 -5 -23 -14 -23 -17 0 -18 12 -8 61 7 33 7 33 14 9 4 -14 7
-35 8 -47z"/>
<path d="M2089 2622 c-23 -19 -23 -22 -13 -93 7 -48 8 -101 2 -148 -5 -41 -6
-81 -4 -88 7 -16 59 -10 116 14 19 8 40 16 47 17 25 4 83 67 83 89 0 42 -14
50 -100 55 l-82 5 4 81 c3 90 -7 104 -53 68z m156 -176 c11 -8 16 -20 12 -29
-6 -16 -95 -86 -109 -87 -5 0 -8 25 -8 55 0 50 2 55 23 55 12 0 29 5 37 10 20
13 23 12 45 -4z"/>
<path d="M2335 2631 c-9 -16 6 -313 17 -335 10 -18 11 -18 32 3 18 19 21 35
24 119 3 127 -15 216 -45 220 -11 2 -24 -2 -28 -7z"/>
<path d="M2992 2628 c-7 -7 -12 -18 -12 -25 0 -9 -17 -13 -58 -13 -51 0 -225
-39 -240 -54 -11 -11 8 -19 56 -24 l49 -4 9 -112 c8 -93 12 -111 27 -114 10
-2 17 3 17 11 0 9 5 17 11 19 7 2 13 42 14 103 l4 100 33 7 c18 4 45 10 59 13
25 6 27 4 33 -32 3 -21 2 -72 -2 -114 -4 -42 -6 -82 -4 -88 6 -17 42 -13 116
13 99 34 158 103 121 140 -9 9 -29 16 -44 16 -38 0 -42 7 -24 39 15 26 15 29
-12 70 -16 24 -40 47 -53 52 -33 13 -86 11 -100 -3z m98 -98 c0 -9 -10 -25
-22 -36 -20 -18 -21 -18 -15 -1 4 10 7 35 7 55 1 35 2 36 15 18 8 -11 15 -27
15 -36z m76 -81 c11 -19 -9 -50 -52 -80 -25 -17 -48 -28 -51 -26 -3 3 -7 26
-8 50 -3 43 -2 45 33 59 37 14 68 13 78 -3z"/>
<path d="M3321 2613 c-25 -31 -44 -94 -67 -221 -18 -104 -15 -113 37 -115 34
-2 34 -2 43 56 8 55 10 58 34 55 21 -3 28 -11 40 -55 14 -50 36 -73 54 -55 11
11 -8 195 -29 270 -11 41 -21 57 -46 72 -41 25 -41 25 -66 -7z m59 -137 c0
-13 3 -32 6 -41 5 -13 2 -16 -12 -13 -10 2 -19 9 -18 16 1 6 2 23 3 37 1 32
21 33 21 1z"/>
<path d="M1810 2590 c-30 -11 -56 -20 -58 -20 -10 0 11 -56 25 -67 13 -10 15
-28 8 -125 -6 -99 -5 -111 8 -100 8 7 18 35 22 62 7 50 15 62 48 67 25 4 92
39 154 80 l53 35 -21 29 c-13 19 -37 34 -71 44 -67 20 -101 19 -168 -5z m180
-71 c-31 -26 -140 -82 -147 -76 -2 3 0 13 6 24 5 10 12 30 16 46 5 26 7 27 78
27 l72 -1 -25 -20z"/>
<path d="M2535 2575 c-42 -44 -78 -117 -69 -140 6 -13 4 -16 -5 -10 -10 5 -11
2 -6 -14 4 -12 2 -21 -4 -21 -6 0 -11 -15 -11 -33 0 -53 35 -79 104 -78 31 0
74 5 96 11 49 13 55 35 8 26 -91 -17 -104 -17 -123 -3 -15 12 -19 25 -17 62 2
61 69 188 101 193 11 2 21 -1 21 -7 0 -13 56 -15 64 -3 14 22 -37 52 -90 52
-29 0 -43 -7 -69 -35z"/>
<path d="M818 2563 c-49 -14 -88 -29 -88 -33 0 -10 37 -20 76 -20 31 0 31 -1
38 -61 3 -34 6 -79 6 -100 0 -45 8 -69 24 -69 24 0 39 47 44 138 3 56 9 95 16
97 111 29 125 37 106 60 -19 23 -120 18 -222 -12z"/>
<path d="M1416 1929 c-21 -46 -24 -50 -31 -30 -4 12 -4 25 -1 28 7 7 -30 27
-68 37 -22 5 -29 3 -32 -12 -4 -13 -15 -18 -41 -19 -20 -1 -55 -14 -85 -32
-44 -28 -51 -29 -64 -16 -18 18 -29 19 -55 5 -17 -10 -19 -23 -19 -149 l0
-138 31 -7 c53 -10 57 -8 69 45 l13 51 26 -33 c51 -65 69 -84 76 -77 11 10
-11 90 -40 151 -14 28 -25 56 -25 62 0 12 50 61 94 92 l29 20 35 -71 34 -71
-21 -66 c-27 -85 -27 -109 0 -109 13 0 23 8 27 23 3 12 24 58 47 102 42 82
103 241 95 248 -3 3 -20 8 -37 12 -31 6 -33 5 -57 -46z"/>
<path d="M3500 1957 c0 -44 88 -73 139 -45 31 17 48 58 23 58 -9 0 -23 -9 -30
-20 -8 -14 -23 -20 -48 -20 -27 0 -37 5 -41 20 -6 22 -43 28 -43 7z"/>
<path d="M2184 1938 c-11 -13 -25 -34 -32 -48 -16 -34 -52 -206 -52 -252 0
-34 3 -38 34 -44 19 -3 39 -3 45 1 6 3 11 31 11 61 0 53 1 54 29 54 25 0 30
-5 39 -42 6 -24 18 -52 25 -63 13 -16 17 -17 31 -6 9 7 13 18 10 23 -4 6 -8
36 -10 67 -6 84 -23 187 -35 214 -6 14 -23 31 -38 38 -14 7 -29 15 -32 16 -3
2 -14 -7 -25 -19z m55 -175 c1 -13 -3 -23 -8 -23 -17 0 -23 20 -15 53 6 28 8
30 15 12 4 -11 8 -30 8 -42z"/>
<path d="M2348 1947 c-12 -13 -14 -26 -6 -69 4 -29 6 -101 2 -160 l-7 -108 31
0 c40 0 141 38 171 64 13 12 32 34 41 49 l18 28 6 -45 c5 -34 15 -52 41 -75
44 -39 66 -44 116 -31 64 18 94 54 108 131 14 81 14 110 0 146 -18 48 -49 73
-90 73 -33 0 -42 -5 -70 -45 -34 -47 -51 -47 -69 0 -7 17 -11 14 -29 -25 -11
-25 -21 -62 -21 -83 0 -35 -1 -37 -16 -23 -8 9 -24 16 -34 16 -10 0 -26 3 -35
6 -15 6 -15 8 1 25 21 23 14 54 -23 97 -34 39 -108 55 -135 29z m91 -76 c7
-12 4 -26 -10 -47 l-19 -29 0 53 c0 53 9 60 29 23z m370 7 c14 -40 13 -154 -3
-191 -35 -84 -128 -74 -142 14 -8 48 40 146 85 176 42 29 50 29 60 1z m-291
-110 c8 -8 6 -18 -9 -39 -18 -25 -77 -69 -93 -69 -4 0 -6 23 -4 52 3 46 6 53
28 59 39 11 65 10 78 -3z"/>
<path d="M3311 1934 c-25 -32 -45 -95 -61 -197 -13 -75 -13 -77 -39 -70 -14 3
-29 7 -32 9 -4 2 -25 62 -48 134 -24 73 -47 130 -54 130 -51 -1 -87 -54 -122
-182 -21 -76 -13 -108 29 -108 30 0 34 4 51 52 l19 53 12 -30 c7 -17 14 -39
15 -50 4 -21 4 -21 -125 -44 -33 -6 -64 -15 -70 -21 -12 -12 42 -130 60 -130
15 0 25 39 17 68 -5 19 -1 22 26 22 18 0 66 7 109 16 l76 16 21 -26 c26 -33
45 -33 45 -1 0 22 4 24 37 22 l38 -2 8 58 c8 51 12 57 33 57 19 0 26 -9 41
-56 17 -56 36 -75 54 -57 12 12 -6 191 -28 271 -11 41 -21 57 -46 72 -41 25
-41 25 -66 -6z m63 -162 c5 -28 3 -33 -12 -30 -9 2 -17 9 -16 16 1 6 2 24 3
39 1 34 16 19 25 -25z"/>
<path d="M670 1933 c-14 -3 -46 -20 -71 -38 -43 -31 -46 -32 -57 -14 -15 23
-35 24 -56 3 -13 -12 -16 -41 -16 -148 l0 -133 31 -7 c53 -10 57 -8 69 45 l13
51 26 -33 c51 -65 69 -84 76 -77 11 10 -11 89 -42 154 -31 66 -30 70 50 134
54 44 55 45 34 57 -12 7 -24 12 -27 11 -3 0 -16 -3 -30 -5z"/>
<path d="M253 1915 c-18 -8 -33 -21 -33 -30 0 -18 32 -20 59 -3 28 17 45 5 59
-45 15 -51 11 -67 -18 -67 -32 0 -101 -32 -97 -44 4 -13 81 -15 115 -3 29 11
30 -15 2 -60 -23 -38 -60 -50 -105 -34 -38 13 -62 14 -70 1 -8 -12 65 -31 124
-32 27 0 62 7 79 16 33 17 55 65 46 101 -5 18 0 25 23 32 27 10 27 10 6 17
-13 4 -23 14 -23 21 0 31 -33 111 -52 128 -24 20 -71 21 -115 2z"/>
<path d="M846 1909 c-36 -29 -79 -105 -78 -140 0 -18 -3 -27 -10 -23 -6 4 -8
-1 -3 -15 4 -12 2 -21 -4 -21 -22 0 -12 -66 13 -89 27 -26 103 -31 175 -11 49
13 57 35 9 26 -91 -17 -103 -17 -123 -3 -16 12 -20 26 -18 62 2 59 70 188 102
193 11 2 21 -1 21 -7 0 -13 56 -15 64 -3 13 22 -41 52 -93 52 -16 0 -40 -9
-55 -21z"/>
<path d="M1570 1910 c-30 -11 -56 -20 -58 -20 -10 0 11 -56 25 -67 13 -10 15
-28 8 -125 -6 -99 -5 -111 8 -100 8 7 18 36 22 63 5 34 13 52 24 56 47 16 127
56 176 88 l55 37 -21 29 c-13 19 -37 34 -71 44 -67 20 -101 19 -168 -5z m180
-71 c-22 -19 -132 -79 -144 -79 -3 0 1 19 20 88 2 8 26 12 76 12 l73 -1 -25
-20z"/>
<path d="M1933 1902 c-36 -33 -66 -88 -57 -104 4 -7 3 -8 -4 -4 -12 7 -17 -11
-13 -43 2 -7 -2 -10 -9 -6 -9 5 -10 1 -6 -13 4 -11 2 -23 -4 -27 -17 -11 -11
-53 13 -81 20 -23 30 -26 80 -25 67 0 137 17 137 33 0 7 -13 8 -37 3 -21 -4
-51 -9 -66 -12 -41 -8 -67 20 -67 70 0 45 63 185 88 195 8 3 23 0 33 -6 35
-22 78 -11 61 14 -27 42 -108 45 -149 6z"/>
<path d="M3470 1852 c0 -5 22 -64 50 -132 l50 -124 -18 -35 c-14 -29 -23 -37
-50 -39 -25 -3 -32 -8 -30 -20 3 -12 13 -17 37 -15 58 2 64 13 166 286 33 87
33 87 11 87 -20 0 -27 -13 -56 -97 -18 -54 -36 -101 -39 -105 -3 -4 -23 40
-45 98 -30 82 -42 104 -57 104 -10 0 -19 -4 -19 -8z"/>
<path d="M3980 1730 c0 -123 1 -130 20 -130 19 0 20 7 20 130 0 123 -1 130
-20 130 -19 0 -20 -7 -20 -130z"/>
<path d="M2360 1261 c0 -24 19 -39 58 -47 54 -11 112 16 112 52 0 21 -28 17
-40 -6 -8 -14 -21 -20 -45 -20 -24 0 -37 6 -45 20 -14 25 -40 26 -40 1z"/>
<path d="M2178 1253 c-28 -33 -45 -77 -62 -163 -28 -145 -21 -132 -58 -112
-22 12 -35 30 -44 57 -6 22 -22 72 -34 112 -29 94 -38 106 -73 98 -32 -8 -55
-47 -85 -147 -13 -42 -19 -80 -15 -102 5 -32 9 -36 37 -36 29 0 33 4 45 45 7
25 17 47 21 50 9 6 35 -83 27 -91 -3 -4 -36 -10 -74 -14 -83 -9 -123 -24 -123
-45 0 -22 48 -115 60 -115 16 0 31 39 24 65 -6 23 -3 25 25 25 18 0 66 7 108
16 l76 15 22 -27 c23 -29 45 -26 45 5 0 15 8 18 37 17 26 -1 38 4 40 14 1 8 4
36 8 61 5 42 8 46 30 41 19 -3 27 -15 40 -58 17 -60 29 -72 51 -53 11 9 14 22
10 43 -4 17 -9 56 -12 86 -13 136 -32 194 -73 215 -37 19 -35 19 -53 -2z m52
-167 c6 -27 5 -36 -5 -36 -20 0 -26 14 -19 49 8 38 13 35 24 -13z"/>
<path d="M1431 1240 c-18 -4 -38 -14 -43 -22 -11 -16 -2 -218 12 -270 9 -31
16 -38 35 -38 l25 0 -6 139 c-6 137 -6 139 17 151 15 8 44 11 85 7 50 -5 62
-3 58 7 -11 29 -110 43 -183 26z"/>
<path d="M1650 1040 c0 -123 1 -130 20 -130 19 0 20 7 20 130 0 123 -1 130
-20 130 -19 0 -20 -7 -20 -130z"/>
<path d="M2371 1048 c27 -67 49 -131 49 -143 0 -36 -37 -75 -71 -75 -24 0 -30
-4 -27 -17 6 -30 77 -22 103 11 18 22 136 318 135 339 0 4 -9 7 -19 7 -15 0
-27 -22 -58 -109 l-38 -109 -39 109 c-35 95 -43 109 -62 109 -22 0 -21 -4 27
-122z"/>
<path d="M2665 1107 c-16 -7 -41 -18 -54 -26 l-25 -14 22 -17 c17 -14 29 -16
54 -10 18 4 66 16 105 25 l73 17 -24 19 c-28 22 -103 25 -151 6z"/>
<path d="M3871 661 c-6 -11 -11 -31 -11 -44 0 -27 33 -62 49 -52 19 11 13 80
-8 99 -19 17 -20 17 -30 -3z"/>
<path d="M3953 610 c-1 -58 0 -60 24 -60 28 0 52 24 53 52 0 15 -53 68 -69 68
-4 0 -8 -27 -8 -60z"/>
<path d="M3630 590 c0 -6 11 -22 25 -35 34 -35 96 -35 130 0 14 13 25 29 25
35 0 18 -35 11 -48 -10 -18 -30 -92 -25 -92 6 0 8 -9 14 -20 14 -11 0 -20 -5
-20 -10z"/>
<path d="M1154 568 c-11 -13 -25 -34 -32 -48 -16 -33 -52 -206 -52 -251 0 -34
2 -37 36 -44 20 -3 40 -3 45 2 4 4 9 31 11 58 3 46 5 50 29 53 24 3 28 -1 39
-47 12 -52 31 -77 50 -66 18 11 -6 254 -31 309 -6 13 -23 30 -38 37 -14 7 -29
15 -32 16 -3 2 -14 -7 -25 -19z m55 -175 c1 -14 -5 -23 -14 -23 -16 0 -19 20
-8 59 6 23 7 23 14 5 4 -10 8 -29 8 -41z"/>
<path d="M1921 563 c-25 -31 -44 -94 -67 -221 -18 -104 -15 -113 37 -115 34
-2 34 -2 43 56 7 50 11 57 31 57 19 0 27 -10 43 -57 15 -46 23 -58 40 -57 15
0 27 -14 48 -58 15 -32 33 -58 40 -58 17 0 26 33 18 64 -6 24 -4 26 25 26 18
0 66 7 108 16 l77 16 19 -26 c27 -37 47 -34 47 9 0 47 -18 83 -44 87 -17 2
-28 24 -61 123 -22 66 -42 126 -45 133 -4 8 -15 10 -37 6 -27 -5 -35 -15 -59
-67 -36 -81 -55 -156 -48 -189 5 -24 11 -28 40 -28 20 0 34 5 35 13 0 6 8 30
18 52 l18 40 16 -48 16 -48 -25 -9 c-14 -6 -40 -10 -57 -10 -18 0 -53 -7 -79
-15 -27 -8 -48 -11 -48 -7 0 4 -7 60 -15 124 -17 138 -33 181 -74 202 -38 20
-36 21 -60 -11z m61 -150 c6 -43 4 -48 -15 -40 -9 3 -12 17 -9 41 5 47 19 46
24 -1z"/>
<path d="M2758 583 c-10 -2 -19 -8 -19 -11 -1 -4 -2 -83 -3 -175 l-2 -168 36
6 c19 4 53 14 75 22 22 8 46 15 53 15 19 2 82 75 82 97 0 31 -27 44 -105 49
l-75 5 0 83 c0 86 -1 88 -42 77z m146 -186 c18 -13 18 -15 2 -39 -15 -23 -86
-78 -101 -78 -3 0 -5 24 -5 53 0 51 1 53 33 64 45 15 51 15 71 0z"/>
<path d="M2994 575 c-4 -9 -4 -85 0 -168 8 -169 19 -202 52 -151 24 36 29 133
12 244 -12 76 -15 85 -36 88 -13 2 -25 -3 -28 -13z"/>
<path d="M3453 567 c-10 -12 -24 -33 -31 -47 -16 -33 -52 -206 -52 -251 0 -34
3 -37 35 -43 20 -4 40 -4 45 -1 6 3 10 31 10 61 0 53 1 54 29 54 27 0 30 -4
41 -50 15 -61 36 -83 56 -55 8 10 11 21 6 24 -4 3 -8 31 -10 61 -4 92 -22 194
-38 217 -8 13 -27 29 -43 37 -26 14 -30 14 -48 -7z m53 -194 c-15 -16 -27 16
-20 53 l8 39 9 -43 c6 -23 7 -45 3 -49z"/>
<path d="M587 561 c-27 -4 -52 -13 -57 -21 -4 -7 -11 -52 -15 -100 -7 -90 8
-197 29 -212 17 -12 52 -9 130 9 81 18 105 33 83 51 -10 8 -28 7 -71 -4 -33
-9 -62 -12 -67 -7 -5 5 -12 29 -15 55 -7 50 -15 44 85 64 46 9 20 24 -43 24
l-49 0 7 46 c3 26 6 52 6 59 0 8 23 15 60 19 34 4 58 11 55 17 -7 10 -64 10
-138 0z"/>
<path d="M1511 559 c-18 -6 -50 -22 -72 -36 -35 -23 -40 -24 -54 -9 -20 20
-32 20 -51 2 -10 -11 -14 -47 -15 -146 0 -72 1 -133 3 -135 2 -2 22 -7 45 -11
l41 -6 7 43 c4 24 9 47 12 52 2 4 25 -18 50 -49 27 -33 49 -52 54 -47 12 12
-23 125 -51 171 -24 40 -24 41 62 112 56 47 56 48 32 59 -14 6 -26 11 -27 10
-1 0 -17 -5 -36 -10z"/>
<path d="M2445 553 c-10 -26 -19 -159 -12 -176 5 -14 12 -14 59 -1 83 22 88
20 88 -27 0 -56 20 -130 37 -136 31 -12 51 28 57 115 3 55 10 88 21 98 17 18
20 54 4 54 -7 0 -8 14 -4 40 7 39 6 40 -24 40 -24 0 -34 -7 -46 -30 -8 -16
-15 -38 -15 -49 0 -14 -8 -22 -25 -26 -14 -3 -37 -7 -51 -11 -27 -5 -27 -5
-21 41 6 37 3 49 -13 65 -25 25 -46 26 -55 3z"/>
<path d="M3298 560 c-14 -4 -47 -22 -72 -39 -33 -23 -46 -28 -46 -17 0 22 -39
31 -58 13 -11 -12 -16 -44 -18 -129 -5 -143 -1 -156 43 -164 42 -8 53 2 60 55
3 22 8 41 12 41 3 0 24 -25 45 -55 22 -30 44 -55 49 -55 17 0 -1 87 -32 152
-29 59 -29 63 -13 85 9 12 41 40 69 61 l53 39 -26 11 c-28 13 -29 13 -66 2z"/>
<path d="M825 545 c-22 -9 -48 -19 -57 -22 -23 -7 -23 -24 2 -56 17 -22 20
-40 20 -132 0 -108 13 -134 25 -51 9 56 12 60 68 79 49 16 187 102 187 116 0
10 -40 46 -67 60 -39 20 -134 23 -178 6z m180 -71 c-19 -15 -150 -84 -159 -84
-4 0 21 78 30 92 3 4 38 8 77 8 67 -1 71 -2 52 -16z"/>
<path d="M1686 528 c-8 -18 -24 -60 -36 -93 -12 -33 -33 -84 -46 -113 -30 -66
-30 -68 5 -87 38 -19 50 -9 81 75 26 69 32 66 51 -18 10 -41 17 -54 35 -58 31
-8 41 0 48 40 13 66 -48 276 -79 276 -8 0 -20 3 -29 6 -11 4 -20 -4 -30 -28z"/>
<path d="M305 523 c-51 -11 -115 -35 -115 -43 0 -5 9 -14 19 -20 16 -8 20 -25
26 -97 8 -117 14 -143 30 -143 25 0 38 42 43 137 l5 93 43 0 c38 0 44 -3 44
-21 0 -51 34 -159 57 -181 38 -36 44 -15 29 110 -12 110 -12 114 8 127 11 8
17 17 14 21 -19 18 -148 30 -203 17z"/>
<path d="M3600 485 c0 -3 23 -63 51 -133 l52 -126 -19 -36 c-15 -28 -26 -36
-52 -38 -41 -4 -41 -35 0 -40 50 -6 82 39 142 198 30 80 58 153 62 163 6 16 3
18 -17 15 -21 -3 -29 -17 -60 -108 -29 -82 -39 -101 -45 -85 -4 11 -22 58 -40
105 -25 66 -37 86 -53 88 -12 2 -21 1 -21 -3z"/>
</g>
</svg>
